# xmcd
# 
# Track frame offsets:
#     150
#     2488
#     25444
#     45051
#     67860
#     95151
#     126085
#     145652
#     216706
#     244540
#     255122
# 
# Disc length: 3687
# 
# Revision: 2
# Processed by: cddbd v1.5.2PL0 Copyright (c) Steve Scherf et al.
# Submitted via: fre:ac v1.0.27
# 
DISCID=890e650b
DTITLE=Henrik Freischlader Band - LIC SHOW No 27  CD3
DYEAR=2013
DGENRE=Blues Rock
TTITLE0=INTRO 3
TTITLE1=1999
TTITLE2=TAKE THE BLAME
TTITLE3=NOWHERE TO GO
TTITLE4=I LOVED ANOTHER WOMAN
TTITLE5=BREAKING MY HEART AGAIN
TTITLE6=LONGER DAYS
TTITLE7=THE BRIDGE
TTITLE8=TWO YOUNG LOVERS
TTITLE9=MO'S GOSPEL
TTITLE10=SISTERS
EXTD=
EXTT0=
EXTT1=
EXTT2=
EXTT3=
EXTT4=
EXTT5=
EXTT6=
EXTT7=
EXTT8=
EXTT9=
EXTT10=
PLAYORDER=
